<svg width="24" height="24" viewBox="0 0 24 24" fill="none" xmlns="http://www.w3.org/2000/svg">
<path fill-rule="evenodd" clip-rule="evenodd" d="M22 12.0144C22 17.5453 17.5228 22.0289 12 22.0289C6.47715 22.0289 2 17.5453 2 12.0144C2 6.48362 6.47715 2 12 2C17.5228 2 22 6.48362 22 12.0144ZM17.1554 10.6055C17.9632 10.5781 18.6393 11.2079 18.6692 12.0145C18.6791 12.577 18.3634 13.0948 17.8613 13.3462C17.8712 13.4931 17.8712 13.64 17.8613 13.7868C17.8613 16.0322 15.2513 17.8543 12.0323 17.8543C8.81333 17.8543 6.20333 16.0297 6.20333 13.7868C6.19339 13.64 6.19339 13.4931 6.20333 13.3462C6.05668 13.2815 5.92494 13.1894 5.81059 13.0824C5.22148 12.5297 5.19414 11.6037 5.74596 11.0162C6.29779 10.4263 7.22247 10.3989 7.8091 10.9515C8.96247 10.1699 10.3172 9.74172 11.7092 9.71932L12.4474 6.24426V6.23928C12.4847 6.07001 12.6513 5.96546 12.8178 6.00279L15.2687 6.49319C15.4253 6.21936 15.7087 6.03516 16.0244 6.00279C16.5737 5.94305 17.0659 6.34134 17.1255 6.89147C17.1852 7.44161 16.7875 7.93449 16.2381 7.99423C15.6888 8.05398 15.1966 7.65569 15.137 7.10555L12.9968 6.65499L12.348 9.77906C13.7226 9.80893 15.0599 10.2346 16.1984 11.0113C16.4569 10.7648 16.7974 10.618 17.1554 10.6055ZM9.6709 12.0145C9.11907 12.0145 8.66916 12.465 8.66916 13.0176C8.66916 13.5703 9.11658 14.0158 9.6709 14.0208C10.2227 14.0208 10.6726 13.5703 10.6726 13.0176C10.6726 12.465 10.2227 12.0145 9.6709 12.0145ZM12.0075 16.5425C12.8973 16.5798 13.7673 16.306 14.4783 15.7708V15.8106C14.5876 15.7036 14.5901 15.5244 14.4832 15.4148C14.3763 15.3053 14.1974 15.3028 14.088 15.4099C13.479 15.8455 12.7432 16.0596 11.9975 16.0197C11.2518 16.0546 10.5185 15.8305 9.91698 15.3899C9.81507 15.3078 9.67338 15.3078 9.57395 15.3899C9.45961 15.4845 9.44221 15.6563 9.53667 15.7708C10.2476 16.306 11.1176 16.5798 12.0075 16.5425ZM13.2975 13.0525C13.2975 13.6051 13.7475 14.0557 14.2993 14.0557L14.2918 14.093H14.3415C14.8934 14.0706 15.3234 13.6051 15.301 13.0525C15.301 12.4999 14.8511 12.0493 14.2993 12.0493C13.7475 12.0493 13.2975 12.4999 13.2975 13.0525Z" fill="#D9D9D9"/>
</svg>
