<svg width="24" height="24" viewBox="0 0 24 24" fill="none" xmlns="http://www.w3.org/2000/svg">
<path d="M18.1221 6.00869C17.0241 5.3063 16.2318 4.18208 15.9846 2.87237C15.9312 2.58947 15.9015 2.29803 15.9015 2H12.397L12.391 15.7797C12.3325 17.3231 11.0379 18.5614 9.45095 18.5614C8.9577 18.5614 8.49333 18.4407 8.08434 18.2292C7.1465 17.7453 6.50453 16.7809 6.50453 15.6715C6.50453 14.0777 7.82644 12.7808 9.45055 12.7808C9.75393 12.7808 10.0447 12.8301 10.3196 12.9143V9.40425C10.0348 9.36583 9.74563 9.34254 9.45055 9.34254C5.89381 9.34254 3 12.1812 3 15.6715C3 17.8124 4.09012 19.7073 5.75418 20.8529C6.80158 21.5751 8.07643 22 9.45095 22C13.0081 22 15.9015 19.1609 15.9015 15.6715V8.68361C17.276 9.65144 18.9602 10.2219 20.7778 10.2219V6.78327C19.7988 6.78327 18.8871 6.49804 18.1221 6.00869Z" fill="#D9D9D9"/>
</svg>
