<svg width="24" height="24" viewBox="0 0 24 24" fill="none" xmlns="http://www.w3.org/2000/svg">
<path d="M11.994 2C6.47102 2 1.99402 6.477 1.99402 12C1.99402 17.523 6.47102 22 11.994 22C17.517 22 21.994 17.523 21.994 12C21.994 6.477 17.517 2 11.994 2ZM15.174 17.152C15.1367 17.2454 15.0798 17.3298 15.0072 17.3994C14.9346 17.469 14.8479 17.5223 14.753 17.5556C14.6581 17.589 14.5571 17.6016 14.4569 17.5927C14.3567 17.5838 14.2596 17.5536 14.172 17.504L11.457 15.394L9.71502 17.002C9.67458 17.0319 9.6273 17.0511 9.5775 17.0579C9.5277 17.0647 9.47699 17.0589 9.43002 17.041L9.76402 14.052L9.77402 14.061L9.78102 14.002C9.78102 14.002 14.666 9.554 14.865 9.365C15.067 9.176 15 9.135 15 9.135C15.012 8.905 14.639 9.135 14.639 9.135L8.16602 13.299L5.47102 12.381C5.47102 12.381 5.05702 12.232 5.01802 11.906C4.97702 11.582 5.48402 11.406 5.48402 11.406L16.201 7.148C16.201 7.148 17.082 6.756 17.082 7.406L15.174 17.152Z" fill="#D9D9D9"/>
</svg>
