<svg width="24" height="24" viewBox="0 0 24 24" fill="none" xmlns="http://www.w3.org/2000/svg">
<path d="M18.9419 6.24101C17.6473 5.66125 16.263 5.23991 14.8157 5C14.638 5.30756 14.4304 5.72124 14.2872 6.05032C12.7488 5.82888 11.2245 5.82888 9.7143 6.05032C9.57116 5.72124 9.3588 5.30756 9.17947 5C7.73067 5.23991 6.3448 5.6628 5.05016 6.24408C2.43887 10.0209 1.73099 13.7038 2.08493 17.3345C3.81688 18.5724 5.49534 19.3244 7.14548 19.8165C7.55291 19.2798 7.91628 18.7093 8.22931 18.108C7.63313 17.8912 7.06211 17.6236 6.52256 17.313C6.6657 17.2115 6.80571 17.1054 6.94098 16.9962C10.2318 18.4694 13.8074 18.4694 17.0589 16.9962C17.1958 17.1054 17.3358 17.2115 17.4774 17.313C16.9362 17.6251 16.3637 17.8927 15.7675 18.1096C16.0805 18.7093 16.4423 19.2813 16.8513 19.818C18.503 19.3259 20.183 18.574 21.915 17.3345C22.3303 13.1256 21.2056 9.47648 18.9419 6.24101ZM8.67765 15.1017C7.68977 15.1017 6.87963 14.219 6.87963 13.1441C6.87963 12.0692 7.67247 11.185 8.67765 11.185C9.68285 11.185 10.493 12.0676 10.4757 13.1441C10.4772 14.219 9.68285 15.1017 8.67765 15.1017ZM15.3223 15.1017C14.3344 15.1017 13.5243 14.219 13.5243 13.1441C13.5243 12.0692 14.3171 11.185 15.3223 11.185C16.3275 11.185 17.1376 12.0676 17.1203 13.1441C17.1203 14.219 16.3275 15.1017 15.3223 15.1017Z" fill="#D9D9D9"/>
</svg>
