<svg width="20" height="20" viewBox="0 0 20 20" fill="none" xmlns="http://www.w3.org/2000/svg">
<path fill-rule="evenodd" clip-rule="evenodd" d="M15 0H5C2.23858 0 0 2.23858 0 5V15C0 17.7614 2.23858 20 5 20H15C17.7614 20 20 17.7614 20 15V5C20 2.23858 17.7614 0 15 0ZM10.483 6.98924C9.85884 6.89668 9.22136 7.0033 8.66126 7.29392C8.10116 7.58455 7.64696 8.04438 7.36327 8.60802C7.07957 9.17166 6.98083 9.81041 7.08107 10.4334C7.18132 11.0564 7.47546 11.6319 7.92165 12.0781C8.36784 12.5243 8.94337 12.8184 9.56636 12.9187C10.1894 13.0189 10.8281 12.9202 11.3917 12.6365C11.9554 12.3528 12.4152 11.8986 12.7058 11.3385C12.9965 10.7784 13.1031 10.1409 13.0105 9.51674C12.9161 8.88005 12.6194 8.2906 12.1643 7.83547C11.7092 7.38034 11.1197 7.08365 10.483 6.98924ZM7.74012 5.51868C8.67362 5.0343 9.73608 4.85661 10.7764 5.01087C11.8375 5.16823 12.82 5.6627 13.5785 6.42126C14.3371 7.17981 14.8315 8.16222 14.9889 9.22337C15.1432 10.2637 14.9655 11.3261 14.4811 12.2596C13.9967 13.1931 13.2303 13.9501 12.2909 14.423C11.3515 14.8958 10.287 15.0604 9.24862 14.8933C8.2103 14.7262 7.25109 14.236 6.50744 13.4923C5.76379 12.7487 5.27356 11.7895 5.10647 10.7511C4.93939 9.71281 5.10397 8.64824 5.5768 7.70884C6.04962 6.76944 6.80662 6.00305 7.74012 5.51868ZM15.5 3.5C14.9477 3.5 14.5 3.94772 14.5 4.5C14.5 5.05228 14.9477 5.5 15.5 5.5H15.51C16.0623 5.5 16.51 5.05228 16.51 4.5C16.51 3.94772 16.0623 3.5 15.51 3.5H15.5Z" fill="#E4E5E6"/>
</svg>
